{"title":"Frozen Planet 2011 TV-Serie DVDrip 4parts English/Dutch Klam ","uid":6885286,"size":4680931966,"categoryP":"video","categoryS":"tv_shows","magnet":"?xt=urn:btih:e1545c786ef4b08126ce344a97668153e46e8eae&amp;dn=Frozen+Planet+2011+TV-Serie+DVDrip+4parts+English%2FDutch+Klam+&amp;tr=udp%3A%2F%2Ftracker.openbittorrent.com%3A80&amp;tr=udp%3A%2F%2Fopen.demonii.com%3A1337&amp;tr=udp%3A%2F%2Ftracker.coppersurfer.tk%3A6969&amp;tr=udp%3A%2F%2Fexodus.desync.com%3A6969","seeders":1,"leechers":0,"uploader":"Klambake","files":-1,"time":1323803966,"description":"Nederlandse ondertitels ja/nee\n\nBBC TV-serie: Frozen Planet, Human Planet, Madagascar en Ganges\nDeze vierdelige BBC-reeks Frozen Planet laat ons kennismaken met de poolgebieden.\n\nDutch Subs yes/no\n\nBBC TV-serie: Frozen Planet, Human Planet, Madagascar and Ganges\nFocuses on life and the environment in both the Arctic and Antarctic.\n\n------------------------ Dutch Friends ------------------------\n---------------------------------------------------------------\n- Bezoek ook eens mijn vrienden op: &lt;a href=&quot; http://www.Film-Test.nl&quot; rel=&quot;nofollow&quot; target=&quot;_NEW&quot;&gt; http://www.Film-Test.nl&lt;/a&gt; --\n----- voor mijn Nederlandse Sync. ondertitels ---- en meer ----\n------- http://www.Film-Test.nl ---- voor Films en meer -------\n---------------------------------------------------------------\n\nGeneral:\n\nComplete name                    : Frozen Planet\\VIDEO_TS\\VTS_03_1.VOB\nFormat                           : MPEG-PS\nFile size                        : 1 024 MiB\nDuration                         : 41mn 20s\nOverall bit rate                 : 3 463 Kbps\n\nVideo:\n\nFormat                           : MPEG Video\nFormat version                   : Version 2\nFormat profile                   : Main@Main\nFormat settings, BVOP            : Yes\nFormat settings, Matrix          : Default\nFormat settings, GOP             : M=3, N=12\nDuration                         : 41mn 20s\nBit rate mode                    : Variable\nBit rate                         : 2 946 Kbps\nNominal bit rate                 : 8 800 Kbps\nWidth                            : 720 pixels\nHeight                           : 576 pixels\nDisplay aspect ratio             : 16:9\nFrame rate                       : 25.000 fps\nStandard                         : PAL\nColor space                      : YUV\nChroma subsampling               : 4:2:0\nBit depth                        : 8 bits\nScan type                        : Interlaced\nScan order                       : Top Field First\nCompression mode                 : Lossy\nBits/(Pixel*Frame)               : 0.284\nStream size                      : 871 MiB (85%)\n\nAudio:\n\nFormat                           : AC-3\nFormat/Info                      : Audio Coding 3\nMode extension                   : CM (complete main)\nMuxing mode                      : DVD-Video\nDuration                         : 41mn 20s\nBit rate mode                    : Constant\nBit rate                         : 448 Kbps\nChannel(s)                       : 6 channels\nChannel positions                : Front: L C R, Side: L R, LFE\nSampling rate                    : 48.0 KHz\nBit depth                        : 16 bits\nCompression mode                 : Lossy\nStream size                      : 132 MiB (13%)\n\nText:\n\nFormat                           : RLE\nFormat/Info                      : Run-length encoding\nMuxing mode                      : DVD-Video\nDelay relative to video          : 5s 80ms\n\nMenu\n","torrent":{"xt":"urn:btih:e1545c786ef4b08126ce344a97668153e46e8eae","amp;dn":"Frozen+Planet+2011+TV-Serie+DVDrip+4parts+English%2FDutch+Klam+","amp;tr":["udp%3A%2F%2Ftracker.openbittorrent.com%3A80","udp%3A%2F%2Fopen.demonii.com%3A1337","udp%3A%2F%2Ftracker.coppersurfer.tk%3A6969","udp%3A%2F%2Fexodus.desync.com%3A6969"],"infoHash":"e1545c786ef4b08126ce344a97668153e46e8eae","infoHashBuffer":{"type":"Buffer","data":[225,84,92,120,110,244,176,129,38,206,52,74,151,102,129,83,228,110,142,174]},"announce":[],"urlList":[]}}